<svg width="24" height="24" viewBox="0 0 24 24" fill="none" xmlns="http://www.w3.org/2000/svg">
<path d="M18.9235 9.08333H11.1446M11.1446 9.08333C11.1446 10.2339 10.2436 11.1667 9.13223 11.1667C8.02084 11.1667 7.11988 10.2339 7.11988 9.08333M11.1446 9.08333C11.1446 7.93274 10.2436 7 9.13223 7C8.02084 7 7.11988 7.93274 7.11988 9.08333M12.8554 14.9167H5.07655M12.8554 14.9167C12.8554 16.0673 13.7564 17 14.8678 17C15.9792 17 16.8801 16.0673 16.8801 14.9167M12.8554 14.9167C12.8554 13.7661 13.7564 12.8333 14.8678 12.8333C15.9792 12.8333 16.8801 13.7661 16.8801 14.9167M16.8801 14.9167H19M7.11988 9.08333H5" stroke="#111111" stroke-linecap="round" stroke-linejoin="round"/>
</svg>
