<svg width="21" height="20" viewBox="0 0 21 20" fill="none" xmlns="http://www.w3.org/2000/svg">
<path d="M10.5013 19C12.4983 18.9997 14.4384 18.3353 16.0162 17.1114C17.5941 15.8874 18.7201 14.1735 19.217 12.2394C19.7138 10.3053 19.5534 8.26084 18.7608 6.42795C17.9682 4.59506 16.5886 3.0778 14.8391 2.11506C13.0896 1.15231 11.0695 0.798747 9.09705 1.11004C7.12455 1.42132 5.31159 2.37978 3.94359 3.83452C2.57559 5.28925 1.73026 7.15764 1.54067 9.14553C1.35107 11.1334 1.82799 13.1279 2.89634 14.815L1.50134 19L5.68634 17.605C7.12592 18.5187 8.7963 19.0026 10.5013 19Z" stroke="black" stroke-width="2" stroke-linecap="round" stroke-linejoin="round"/>
</svg>
