<svg width="98" height="88" viewBox="0 0 98 88" fill="none" xmlns="http://www.w3.org/2000/svg">
<path d="M40.8296 24.9158L41.4391 23.25C40.3761 21.7723 39.75 19.9593 39.75 18C39.75 13.0294 43.7794 9 48.75 9C53.7206 9 57.75 13.0294 57.75 18C57.75 22.9706 53.7206 27 48.75 27C47.168 27 45.6813 26.5918 44.3895 25.875L41.918 26.2482C41.1669 26.3616 40.5686 25.6291 40.8296 24.9158Z" stroke="#111111" stroke-width="1.5" stroke-linecap="round" stroke-linejoin="round"/>
<rect x="49.75" y="3" width="14" height="14" rx="7" fill="#FF0000"/>
<path d="M56.6914 5.89844C57.2383 5.89844 57.7422 6.02344 58.2031 6.27344C58.6641 6.52344 59.041 6.94727 59.334 7.54492C59.627 8.14258 59.7734 8.93359 59.7734 9.91797C59.7734 10.9102 59.6445 11.7578 59.3867 12.4609C59.1289 13.1641 58.7578 13.6992 58.2734 14.0664C57.7891 14.4336 57.2148 14.6172 56.5508 14.6172C56.0664 14.6172 55.6289 14.5215 55.2383 14.3301C54.8477 14.1387 54.5273 13.873 54.2773 13.5332C54.0273 13.1934 53.8672 12.8008 53.7969 12.3555H54.8398C54.9023 12.6133 55.0098 12.8418 55.1621 13.041C55.3145 13.2402 55.5078 13.3965 55.7422 13.5098C55.9766 13.623 56.2461 13.6797 56.5508 13.6797C57.0117 13.6797 57.4102 13.5508 57.7461 13.293C58.082 13.0352 58.3398 12.6621 58.5195 12.1738C58.6992 11.6855 58.7891 11.1016 58.7891 10.4219H58.6719C58.5078 10.6562 58.3145 10.8574 58.0918 11.0254C57.8691 11.1934 57.623 11.3223 57.3535 11.4121C57.084 11.502 56.8008 11.5469 56.5039 11.5469C56.0039 11.5469 55.541 11.4258 55.1152 11.1836C54.6895 10.9414 54.3516 10.6074 54.1016 10.1816C53.8516 9.75586 53.7266 9.27734 53.7266 8.74609C53.7266 8.21484 53.8496 7.73242 54.0957 7.29883C54.3418 6.86523 54.6895 6.52148 55.1387 6.26758C55.5879 6.01367 56.1055 5.89062 56.6914 5.89844ZM56.6914 6.82422C56.332 6.82422 56.0039 6.91016 55.707 7.08203C55.4102 7.25391 55.1777 7.48633 55.0098 7.7793C54.8418 8.07227 54.7578 8.39062 54.7578 8.73438C54.7578 9.07812 54.8398 9.39453 55.0039 9.68359C55.168 9.97266 55.3945 10.2012 55.6836 10.3691C55.9727 10.5371 56.2969 10.6211 56.6562 10.6211C57.0156 10.6211 57.3457 10.5312 57.6465 10.3516C57.9473 10.1719 58.1855 9.93555 58.3613 9.64258C58.5371 9.34961 58.625 9.03906 58.625 8.71094C58.625 8.38281 58.541 8.07422 58.373 7.78516C58.2051 7.49609 57.9746 7.26367 57.6816 7.08789C57.3887 6.91211 57.0586 6.82422 56.6914 6.82422Z" fill="white"/>
<path d="M41.584 38.7012C41.584 39.416 41.4902 40.1113 41.3027 40.7871C41.1152 41.4629 40.8418 42.0703 40.4824 42.6094C40.123 43.1445 39.6855 43.5586 39.1699 43.8516L38.5195 43.0312C38.9883 42.7617 39.3887 42.3965 39.7207 41.9355C40.0527 41.4746 40.3027 40.9648 40.4707 40.4062C40.6426 39.8477 40.7285 39.2793 40.7285 38.7012V38.2207H41.584V38.7012ZM41.7773 38.7012C41.7773 39.2598 41.8613 39.8047 42.0293 40.3359C42.2012 40.8633 42.4551 41.3438 42.791 41.7773C43.127 42.2109 43.5312 42.5527 44.0039 42.8027L43.3652 43.6289C42.8496 43.3477 42.4082 42.9531 42.041 42.4453C41.6738 41.9375 41.3965 41.3633 41.209 40.7227C41.0254 40.0781 40.9336 39.4043 40.9336 38.7012V38.2207H41.7773V38.7012ZM43.6934 38.3145H38.8008V37.4004H43.6934V38.3145ZM41.7832 38.0859H40.7285V35.8711H41.7832V38.0859ZM47.707 45.9902H46.6348V35.4902H47.707V45.9902ZM47.0273 40.6055H45.0762V39.6738H47.0273V40.6055ZM45.3867 45.4746H44.332V35.6895H45.3867V45.4746ZM50.8736 40.3887C51.9322 40.3848 52.7798 40.3652 53.4165 40.3301C54.0533 40.291 54.6939 40.2207 55.3384 40.1191L55.4497 41.0098C54.731 41.127 54.0083 41.2051 53.2818 41.2441C52.5552 41.2793 51.5728 41.2969 50.3345 41.2969H49.4673V40.3887H50.3345H50.8736ZM54.5181 37.1543H50.5865V40.8281H49.4673V36.2578H54.5181V37.1543ZM54.2193 39.1934H50.229V38.3027H54.2193V39.1934ZM57.5708 41.959H56.4634V35.502H57.5708V41.959ZM54.0611 42.1113C54.7915 42.1035 55.4244 42.1758 55.9595 42.3281C56.4947 42.4805 56.9048 42.7012 57.19 42.9902C57.479 43.2793 57.6236 43.6289 57.6236 44.0391C57.6236 44.4453 57.479 44.793 57.19 45.082C56.9048 45.375 56.4947 45.5977 55.9595 45.75C55.4283 45.9023 54.7955 45.9785 54.0611 45.9785C53.3189 45.9785 52.6802 45.9023 52.1451 45.75C51.6099 45.5977 51.1997 45.375 50.9146 45.082C50.6294 44.793 50.4869 44.4453 50.4869 44.0391C50.4869 43.6289 50.6294 43.2793 50.9146 42.9902C51.1997 42.7012 51.6099 42.4805 52.1451 42.3281C52.6802 42.1758 53.3189 42.1035 54.0611 42.1113ZM54.0611 42.9785C53.5415 42.9785 53.0962 43.0195 52.7251 43.1016C52.354 43.1836 52.0728 43.3047 51.8814 43.4648C51.69 43.6211 51.5943 43.8125 51.5943 44.0391C51.5943 44.2617 51.69 44.4551 51.8814 44.6191C52.0728 44.7793 52.354 44.9023 52.7251 44.9883C53.0962 45.0703 53.5415 45.1113 54.0611 45.1113C54.5728 45.1113 55.0122 45.0703 55.3794 44.9883C55.7505 44.9023 56.0337 44.7793 56.229 44.6191C56.4244 44.4551 56.522 44.2617 56.522 44.0391C56.522 43.8164 56.4244 43.625 56.229 43.4648C56.0337 43.3047 55.7505 43.1836 55.3794 43.1016C55.0122 43.0195 54.5728 42.9785 54.0611 42.9785Z" fill="#111111"/>
</svg>
