<svg width="98" height="88" viewBox="0 0 98 88" fill="none" xmlns="http://www.w3.org/2000/svg">
<path d="M40.1953 14.7031L48.1953 9.3698C48.5312 9.14587 48.9688 9.14587 49.3047 9.3698L57.3047 14.7031C57.5829 14.8886 57.75 15.2008 57.75 15.5352V26C57.75 26.5523 57.3023 27 56.75 27H52.5278C52.0982 27 51.75 26.6518 51.75 26.2222V23C51.75 21.3431 50.4069 20 48.75 20C47.0931 20 45.75 21.3431 45.75 23V26.2222C45.75 26.6518 45.4018 27 44.9722 27H40.75C40.1977 27 39.75 26.5523 39.75 26V15.5352C39.75 15.2008 39.9171 14.8886 40.1953 14.7031Z" stroke="black" stroke-width="1.5"/>
<path d="M52.0449 45.8613H44.7852V42.832H52.0449V45.8613ZM45.8867 45.0117H50.9551V43.6816H45.8867V45.0117ZM52.6719 37.1836H44.1172V36.334H52.6719V37.1836ZM48.4238 37.5586C49.541 37.5625 50.3926 37.6895 50.9785 37.9395C51.5684 38.1855 51.8633 38.5547 51.8633 39.0469C51.8633 39.5352 51.5684 39.9062 50.9785 40.1602C50.3926 40.4141 49.541 40.541 48.4238 40.541C47.3145 40.541 46.4609 40.4141 45.8633 40.1602C45.2656 39.9062 44.9668 39.5352 44.9668 39.0469C44.9668 38.5586 45.2656 38.1895 45.8633 37.9395C46.4609 37.6895 47.3145 37.5625 48.4238 37.5586ZM48.4238 38.3203C47.9199 38.3203 47.5 38.3496 47.1641 38.4082C46.832 38.4629 46.5801 38.543 46.4082 38.6484C46.2402 38.7539 46.1562 38.8867 46.1562 39.0469C46.1562 39.1992 46.2422 39.3301 46.4141 39.4395C46.5898 39.5488 46.8457 39.6328 47.1816 39.6914C47.5176 39.7461 47.9316 39.7734 48.4238 39.7734C48.916 39.7734 49.3301 39.7461 49.666 39.6914C50.002 39.6328 50.2559 39.5488 50.4277 39.4395C50.5996 39.3301 50.6855 39.1992 50.6855 39.0469C50.6855 38.8867 50.5996 38.7539 50.4277 38.6484C50.2559 38.543 50.0039 38.4629 49.6719 38.4082C49.3438 38.3496 48.9277 38.3203 48.4238 38.3203ZM48.9746 36.9141H47.8672V35.3613H48.9746V36.9141ZM53.2109 42.123H43.6367V41.2383H53.2109V42.123ZM48.9746 41.7305H47.8672V40.2539H48.9746V41.7305Z" fill="#111111"/>
</svg>
