<svg width="160" height="70" viewBox="0 0 160 70" fill="none" xmlns="http://www.w3.org/2000/svg">
<path d="M120.39 44.2947C115.177 44.2947 112.933 42.5882 112.933 37.843V36.1366C112.933 31.438 115.247 29.6615 120.39 29.6615C125.556 29.6615 127.823 31.438 127.823 36.1366V37.843C127.823 42.5882 125.556 44.2947 120.39 44.2947ZM120.39 40.9987C122.704 40.9987 123.803 40.3676 123.803 37.6794V36.2768C123.803 33.799 123.055 32.9575 120.39 32.9575C117.725 32.9575 116.977 33.799 116.977 36.2768V37.6794C116.977 40.3676 118.076 40.9987 120.39 40.9987Z" fill="#111111"/>
<path d="M16.4864 41.0453V34.3599C16.4864 31.2509 17.5383 29.8951 20.6473 29.8951H26.5379C29.6469 29.8951 30.6754 31.0873 30.7923 33.9625V35.5521C30.7923 37.6559 29.6235 38.7078 27.2626 38.7078H20.5304V39.9467C20.5304 40.5311 20.6473 40.9285 21.0914 41.1155H30.3248V44.0608H19.9927C17.5617 44.0608 16.4864 42.8453 16.4864 41.0453ZM25.673 32.9574H22.0498C21.0446 32.9574 20.5304 33.0509 20.5304 34.056V35.6456H25.673C26.4912 35.6456 26.7717 35.3417 26.7717 34.5703V34.056C26.7717 33.2379 26.4912 32.9574 25.673 32.9574Z" fill="#111111"/>
<path d="M104.192 11.2574C90.0977 13.045 74.1232 16.8778 59.3023 22.0278C44.4815 27.1777 31.8467 33.2861 23.798 39.1926C15.7493 45.099 12.8474 50.3922 15.6433 54.0666C18.4393 57.7411 26.7385 59.5408 38.9644 59.124C51.1903 58.7072 66.4913 56.1028 81.9611 51.8057C97.4308 47.5085 111.992 41.8179 122.878 35.8146C133.764 29.8114 140.217 23.9138 141.012 19.2421C141.806 14.5703 136.886 11.4499 127.187 10.4734L118.637 14.6658C126.655 15.4731 130.723 18.0528 130.066 21.9149C129.409 25.777 124.074 30.6526 115.075 35.6155C106.075 40.5783 94.0376 45.2828 81.2487 48.8353C68.4598 52.3877 55.8104 54.5407 45.7033 54.8853C35.5961 55.2299 28.7352 53.7421 26.4237 50.7044C24.1123 47.6668 26.5114 43.2909 33.1652 38.408C39.8191 33.5251 50.2643 28.4753 62.5167 24.2179C74.7691 19.9604 87.9753 16.7918 99.6268 15.314L104.192 11.2574Z" fill="#0066FF"/>
<path d="M30.7918 35.5518C30.7918 37.6556 29.6235 38.708 27.2625 38.708H24.4695C26.3534 37.3647 28.47 36.0123 30.7918 34.665V35.5518Z" fill="#111111"/>
<path d="M31.7803 33.5416V30.1288H34.9594V25.103H38.98V30.1288H43.8421V33.5416H38.98V39.3388C38.98 40.2505 39.3072 40.6478 40.2423 40.6478H43.8421V44.0607H39.2371C35.871 44.0607 34.9594 42.5646 34.9594 39.4791V33.5416H31.7803Z" fill="#111111"/>
<path d="M97.7361 44.0608V40.0402L106.853 28.1888V27.768H98.1101V24.3318H111.481V28.3758L102.341 40.2506V40.6246H111.925V44.0608H97.7361Z" fill="#111111"/>
<path d="M144.866 41.0453V34.3599C144.866 31.2509 145.918 29.8951 149.027 29.8951H154.918C158.027 29.8951 159.055 31.0873 159.172 33.9625V35.5521C159.172 37.6559 158.004 38.7078 155.643 38.7078H148.91V39.9467C148.91 40.5311 149.027 40.9285 149.471 41.1155H158.705V44.0608H148.373C145.942 44.0608 144.866 42.8453 144.866 41.0453ZM154.053 32.9574H150.43C149.425 32.9574 148.91 33.0509 148.91 34.056V35.6456H154.053C154.871 35.6456 155.152 35.3417 155.152 34.5703V34.056C155.152 33.2379 154.871 32.9574 154.053 32.9574Z" fill="#111111"/>
<path d="M143.407 44.0608H139.387V35.3884C139.387 33.9625 138.779 33.3314 137.283 33.3314H133.496V44.0608H129.452V29.8951H138.779C141.981 29.8951 143.407 31.5548 143.407 34.6638V44.0608Z" fill="#111111"/>
<path d="M87.0314 44.0608H83.0108V35.3884C83.0108 33.9625 82.4031 33.3314 80.907 33.3314H77.1202V44.0608H73.0762V29.8951H82.4031C85.6055 29.8951 87.0314 31.5548 87.0314 34.6638V44.0608Z" fill="#111111"/>
<path d="M64.6188 44.0842H60.5748V33.8456C60.5748 31.1574 61.7202 29.8951 64.5253 29.8951H70.8601V33.3314H65.8811C64.9461 33.3314 64.6188 33.7287 64.6188 34.6404V44.0842Z" fill="#111111"/>
<path d="M55.1132 29.8951H59.1339V38.8246C59.1339 42.4011 57.7079 44.1075 54.038 44.1075H51.5368C46.9785 44.1075 45.1786 42.9855 45.1786 38.8246V29.8951H49.2226V36.604C49.2226 39.5025 49.1057 40.6947 51.864 40.6947H52.5653C55.2535 40.6947 55.1132 39.3623 55.1132 36.604V29.8951Z" fill="#111111"/>
<path d="M15.802 44.0608H11.4308C10.4022 41.6064 9.42045 39.2221 8.39192 36.6975H4.06743V44.0608H6.10352e-05V24.3318H8.88281C13.4177 24.3318 15.1241 26.0382 15.1241 29.8952V31.4847C15.1241 33.8924 14.1891 35.4352 12.319 36.1131C13.4644 38.8481 14.6098 41.3259 15.802 44.0608ZM4.06743 33.2379H8.43867C10.3087 33.2379 11.0801 32.6301 11.0801 31.1341V29.8952C11.0801 28.3992 10.3087 27.7914 8.43867 27.7914H4.06743V33.2379Z" fill="#111111"/>
<path d="M109.814 20.0484L107.76 13.47L138.773 5.01208L109.814 20.0484Z" fill="#0066FF"/>
<path d="M123.732 30.0127C125.619 30.4953 126.813 31.4995 127.397 33.1699C126.248 33.8852 125.032 34.605 123.752 35.3262C123.551 33.5791 122.68 32.957 120.39 32.957C120.064 32.957 119.766 32.9694 119.495 32.9961C121.073 31.9881 122.488 30.9914 123.732 30.0127Z" fill="#111111"/>
</svg>
