<svg width="100" height="48" viewBox="0 0 100 48" fill="none" xmlns="http://www.w3.org/2000/svg">
<path d="M92.4916 19.1206C95.1595 19.1206 96.3058 20.5366 95.9307 23.3685C95.5555 26.2005 94.1084 27.6165 91.5894 27.6165H89.2401C88.99 29.5285 89.6867 30.4845 91.3303 30.4845C92.5749 30.4845 93.7481 29.8983 94.8498 28.7258L94.4746 31.5668C93.492 32.7392 92.2593 33.3255 90.7765 33.3255C87.6739 33.3255 86.4412 30.9039 87.0784 26.0607C87.6918 21.434 89.4962 19.1206 92.4916 19.1206ZM89.5885 24.992H91.9556C92.9382 24.992 93.498 24.4824 93.635 23.4632C93.766 22.4441 93.2598 21.9345 92.1164 21.9345C90.8063 21.9345 89.9636 22.9537 89.5885 24.992Z" fill="#111111"/>
<path d="M76.6768 33.3255L78.5337 19.1206H80.6116L80.2491 23.9097C81.3986 20.717 82.8369 19.1206 84.5641 19.1206C86.3503 19.1206 87.043 20.6583 86.6421 23.7338L85.3865 33.3255H83.0433L84.2989 23.6932C84.4462 22.5749 84.0984 22.0157 83.2555 22.0157C82.1413 22.0157 81.0272 23.5174 79.9131 26.5207L79.02 33.3255H76.6768Z" fill="#111111"/>
<path d="M70.08 26.1758C69.6947 29.1581 70.2171 30.6493 71.647 30.6493C73.077 30.6493 73.9845 29.1581 74.3697 26.1758C74.7433 23.2661 74.2151 21.8112 72.7851 21.8112C71.3552 21.8112 70.4535 23.2661 70.08 26.1758ZM67.7512 26.2302C68.3757 21.3806 70.1763 18.9558 73.1528 18.9558C76.1294 18.9558 77.3055 21.3806 76.681 26.2302C76.0565 31.0708 74.2559 33.491 71.2793 33.491C68.3144 33.491 67.1384 31.0708 67.7512 26.2302Z" fill="#111111"/>
<path d="M68.9148 14.0005L68.514 17.1087L60.1934 30.2175H66.8237L66.4229 33.3257H57.1875L57.5883 30.2175L66.0222 17.1087H59.4528L59.8536 14.0005H68.9148Z" fill="#111111"/>
<path d="M43.9727 33.3255L45.8296 19.1206H47.9075L47.545 23.9097C48.6945 20.717 50.1328 19.1206 51.86 19.1206C53.6462 19.1206 54.3389 20.6583 53.938 23.7338L52.6824 33.3255H50.3392L51.5948 23.6932C51.7421 22.5749 51.3943 22.0157 50.5514 22.0157C49.4372 22.0157 48.3231 23.5174 47.209 26.5207L46.3159 33.3255H43.9727Z" fill="#111111"/>
<path d="M38.356 33.3255L40.2 19.1206H42.2637L41.9387 23.6391C42.9808 20.6268 44.099 19.1206 45.2932 19.1206L44.8981 22.151C43.7389 22.151 42.6295 23.6075 41.5699 26.5207L40.683 33.3255H38.356Z" fill="#111111"/>
<path d="M38.8514 19.1206L36.9945 33.3255H34.9166L35.2791 28.5364C34.1296 31.7291 32.6912 33.3255 30.964 33.3255C29.1779 33.3255 28.4852 31.7877 28.8861 28.7123L30.1417 19.1206H32.4849L31.2293 28.7529C31.0819 29.8712 31.4297 30.4304 32.2727 30.4304C33.3868 30.4304 34.501 28.9287 35.6151 25.9254L36.5082 19.1206H38.8514Z" fill="#111111"/>
<path d="M25.3771 16.8083H27.0886L27.141 19.1099H29.2716L28.9049 21.9531H27.0275L26.1804 28.4923C26.0116 29.8191 26.2969 30.4825 27.0362 30.4825H27.8046L27.4379 33.3256H25.5517C24.0148 33.3256 23.4123 32.0485 23.7441 29.4942L25.3771 16.8083Z" fill="#111111"/>
<path d="M20.2115 19.1206C22.8309 19.1206 23.9564 20.5366 23.588 23.3685C23.2197 26.2005 21.7989 27.6165 19.3257 27.6165H17.0191C16.7735 29.5285 17.4576 30.4845 19.0714 30.4845C20.2933 30.4845 21.4452 29.8983 22.5268 28.7258L22.1585 31.5668C21.1938 32.7392 19.9835 33.3255 18.5276 33.3255C15.4814 33.3255 14.2711 30.9039 14.8967 26.0607C15.4989 21.434 17.2705 19.1206 20.2115 19.1206ZM17.3612 24.992H19.6853C20.65 24.992 21.1996 24.4824 21.3341 23.4632C21.4627 22.4441 20.9657 21.9345 19.8431 21.9345C18.5568 21.9345 17.7295 22.9537 17.3612 24.992Z" fill="#111111"/>
<path d="M4 33.2985L6.52712 14.0002H12.2706C14.8507 14.0002 15.914 15.7256 15.4604 19.1762C15.101 21.906 13.8434 23.8385 11.6874 24.9737L14.6033 33.3255H11.8729L9.12492 24.9062L9.33699 23.271C11.5048 22.6853 12.7241 21.3564 12.9951 19.2843C13.1836 17.8608 12.7536 17.149 11.7051 17.149H8.49756L6.38574 33.2985H4Z" fill="#111111"/>
</svg>
