<svg width="98" height="88" viewBox="0 0 98 88" fill="none" xmlns="http://www.w3.org/2000/svg">
<path d="M49.2499 21C46.0798 21 43.2606 22.5306 41.4658 24.906C41.0796 25.4172 40.8864 25.6728 40.8927 26.0183C40.8976 26.2852 41.0652 26.6219 41.2752 26.7867C41.547 27 41.9237 27 42.6771 27H55.8226C56.576 27 56.9527 27 57.2245 26.7867C57.4345 26.6219 57.6021 26.2852 57.607 26.0183C57.6133 25.6728 57.4201 25.4172 57.0339 24.906C55.2391 22.5306 52.4199 21 49.2499 21Z" stroke="#131313" stroke-width="1.5" stroke-linecap="round" stroke-linejoin="round"/>
<path d="M49.2499 18C51.7351 18 53.7499 15.9853 53.7499 13.5C53.7499 11.0147 51.7351 9 49.2499 9C46.7646 9 44.7499 11.0147 44.7499 13.5C44.7499 15.9853 46.7646 18 49.2499 18Z" stroke="#131313" stroke-width="1.5" stroke-linecap="round" stroke-linejoin="round"/>
<path d="M28.9512 43.3594H24.041V36.5332H28.9512V43.3594ZM25.125 42.4629H27.8438V37.4121H25.125V42.4629ZM31.8164 45.9902H30.709V35.4902H31.8164V45.9902ZM33.5098 40.5527H31.5645V39.6035H33.5098V40.5527ZM42.565 46.0195H41.4458V35.4902H42.565V46.0195ZM36.94 36.2812C37.4634 36.2812 37.9302 36.4336 38.3404 36.7383C38.7505 37.043 39.0708 37.4727 39.3013 38.0273C39.5318 38.582 39.647 39.2285 39.647 39.9668C39.647 40.709 39.5318 41.3574 39.3013 41.9121C39.0708 42.4668 38.7505 42.8965 38.3404 43.2012C37.9302 43.502 37.4634 43.6523 36.94 43.6523C36.4165 43.6523 35.9478 43.502 35.5337 43.2012C35.1236 42.8965 34.8033 42.4668 34.5728 41.9121C34.3423 41.3574 34.2271 40.709 34.2271 39.9668C34.2271 39.2285 34.3423 38.582 34.5728 38.0273C34.8033 37.4727 35.1236 37.043 35.5337 36.7383C35.9478 36.4336 36.4165 36.2812 36.94 36.2812ZM36.94 37.2773C36.6197 37.2773 36.3345 37.3867 36.0845 37.6055C35.8345 37.8242 35.6412 38.1367 35.5044 38.543C35.3716 38.9453 35.3052 39.4199 35.3052 39.9668C35.3052 40.5098 35.3716 40.9844 35.5044 41.3906C35.6412 41.7969 35.8345 42.1094 36.0845 42.3281C36.3345 42.543 36.6197 42.6504 36.94 42.6504C37.2603 42.6504 37.5435 42.543 37.7896 42.3281C38.0396 42.1094 38.233 41.7969 38.3697 41.3906C38.5064 40.9844 38.5747 40.5098 38.5747 39.9668C38.5747 39.4199 38.5064 38.9453 38.3697 38.543C38.233 38.1367 38.0415 37.8242 37.7955 37.6055C37.5494 37.3867 37.2642 37.2773 36.94 37.2773ZM53.1729 45.9902H52.1065V35.4902H53.1729V45.9902ZM50.3839 40.4238H48.7257V39.4277H50.3839V40.4238ZM51.0987 45.457H50.044V35.7305H51.0987V45.457ZM49.0128 37.6934H44.1905V36.7852H49.0128V37.6934ZM43.9737 42.5273C44.8956 42.5273 45.8233 42.5117 46.7569 42.4805C47.6905 42.4453 48.5147 42.3789 49.2296 42.2812L49.2999 43.0898C48.5694 43.2344 47.7491 43.332 46.839 43.3828C45.9288 43.4336 45.0186 43.459 44.1085 43.459L43.9737 42.5273ZM46.0128 42.7969H45.005V37.3594H46.0128V42.7969ZM48.1983 42.7969H47.1729V37.3594H48.1983V42.7969ZM63.0192 46.0195H61.9V35.4902H63.0192V46.0195ZM57.3942 36.2812C57.9176 36.2812 58.3844 36.4336 58.7946 36.7383C59.2047 37.043 59.525 37.4727 59.7555 38.0273C59.986 38.582 60.1012 39.2285 60.1012 39.9668C60.1012 40.709 59.986 41.3574 59.7555 41.9121C59.525 42.4668 59.2047 42.8965 58.7946 43.2012C58.3844 43.502 57.9176 43.6523 57.3942 43.6523C56.8707 43.6523 56.402 43.502 55.9879 43.2012C55.5778 42.8965 55.2575 42.4668 55.027 41.9121C54.7965 41.3574 54.6813 40.709 54.6813 39.9668C54.6813 39.2285 54.7965 38.582 55.027 38.0273C55.2575 37.4727 55.5778 37.043 55.9879 36.7383C56.402 36.4336 56.8707 36.2812 57.3942 36.2812ZM57.3942 37.2773C57.0739 37.2773 56.7887 37.3867 56.5387 37.6055C56.2887 37.8242 56.0953 38.1367 55.9586 38.543C55.8258 38.9453 55.7594 39.4199 55.7594 39.9668C55.7594 40.5098 55.8258 40.9844 55.9586 41.3906C56.0953 41.7969 56.2887 42.1094 56.5387 42.3281C56.7887 42.543 57.0739 42.6504 57.3942 42.6504C57.7145 42.6504 57.9977 42.543 58.2438 42.3281C58.4938 42.1094 58.6871 41.7969 58.8239 41.3906C58.9606 40.9844 59.0289 40.5098 59.0289 39.9668C59.0289 39.4199 58.9606 38.9453 58.8239 38.543C58.6871 38.1367 58.4957 37.8242 58.2496 37.6055C58.0035 37.3867 57.7184 37.2773 57.3942 37.2773ZM68.1955 38.5898C68.1955 39.3438 68.0646 40.082 67.8029 40.8047C67.5412 41.5234 67.1818 42.1641 66.7248 42.7266C66.2677 43.2852 65.7502 43.7051 65.172 43.9863L64.5158 43.1133C65.0353 42.8633 65.506 42.498 65.9279 42.0176C66.3498 41.5332 66.6799 40.9922 66.9181 40.3945C67.1603 39.793 67.2814 39.1914 67.2814 38.5898V37.0312H68.1955V38.5898ZM68.4064 38.5898C68.4064 39.168 68.5236 39.7422 68.758 40.3125C68.9963 40.8828 69.3263 41.3906 69.7482 41.8359C70.174 42.2812 70.6525 42.6191 71.1838 42.8496L70.5685 43.7227C69.9748 43.457 69.4455 43.0625 68.9806 42.5391C68.5197 42.0156 68.1603 41.4121 67.9025 40.7285C67.6486 40.0449 67.5217 39.332 67.5217 38.5898V37.0312H68.4064V38.5898ZM70.8088 37.4707H64.8849V36.5566H70.8088V37.4707ZM73.2463 45.9902H72.1271V35.4902H73.2463V45.9902Z" fill="#111111"/>
</svg>
