<svg width="25" height="24" viewBox="0 0 25 24" fill="none" xmlns="http://www.w3.org/2000/svg">
<path d="M6.5 4C5.96957 4 5.46086 4.21071 5.08579 4.58579C4.71071 4.96086 4.5 5.46957 4.5 6V18C4.5 18.5304 4.71071 19.0391 5.08579 19.4142C5.46086 19.7893 5.96957 20 6.5 20H18.5C19.0304 20 19.5391 19.7893 19.9142 19.4142C20.2893 19.0391 20.5 18.5304 20.5 18V6C20.5 5.46957 20.2893 4.96086 19.9142 4.58579C19.5391 4.21071 19.0304 4 18.5 4H6.5ZM6.5 2H18.5C19.5609 2 20.5783 2.42143 21.3284 3.17157C22.0786 3.92172 22.5 4.93913 22.5 6V18C22.5 19.0609 22.0786 20.0783 21.3284 20.8284C20.5783 21.5786 19.5609 22 18.5 22H6.5C5.43913 22 4.42172 21.5786 3.67157 20.8284C2.92143 20.0783 2.5 19.0609 2.5 18V6C2.5 4.93913 2.92143 3.92172 3.67157 3.17157C4.42172 2.42143 5.43913 2 6.5 2V2ZM13.5 13V17C13.5 17.2652 13.3946 17.5196 13.2071 17.7071C13.0196 17.8946 12.7652 18 12.5 18C12.2348 18 11.9804 17.8946 11.7929 17.7071C11.6054 17.5196 11.5 17.2652 11.5 17V13H7.5C7.23478 13 6.98043 12.8946 6.79289 12.7071C6.60536 12.5196 6.5 12.2652 6.5 12C6.5 11.7348 6.60536 11.4804 6.79289 11.2929C6.98043 11.1054 7.23478 11 7.5 11H11.5V7C11.5 6.73478 11.6054 6.48043 11.7929 6.29289C11.9804 6.10536 12.2348 6 12.5 6C12.7652 6 13.0196 6.10536 13.2071 6.29289C13.3946 6.48043 13.5 6.73478 13.5 7V11H17.5C17.7652 11 18.0196 11.1054 18.2071 11.2929C18.3946 11.4804 18.5 11.7348 18.5 12C18.5 12.2652 18.3946 12.5196 18.2071 12.7071C18.0196 12.8946 17.7652 13 17.5 13H13.5Z" fill="#001D6C"/>
</svg>
