<svg width="98" height="88" viewBox="0 0 98 88" fill="none" xmlns="http://www.w3.org/2000/svg">
<path d="M49.25 14L49.25 18M49.25 18L49.25 22M49.25 18L53.25 18M49.25 18H45.25M44.25 26H54.25C55.9069 26 57.25 24.6569 57.25 23V13C57.25 11.3431 55.9069 10 54.25 10H44.25C42.5931 10 41.25 11.3431 41.25 13V23C41.25 24.6569 42.5931 26 44.25 26Z" stroke="#404040" stroke-width="1.5" stroke-linecap="round" stroke-linejoin="round"/>
<path d="M31.7344 41.8887H22.125V40.998H31.7344V41.8887ZM27.5742 43.8223H26.4727V41.4434H27.5742V43.8223ZM30.668 45.7852H23.3203V44.8652H30.668V45.7852ZM24.4219 45.2285H23.3203V42.8965H24.4219V45.2285ZM24.498 37.0957H29.3613V35.8301H30.4629V40.0664H23.3965V35.8301H24.498V37.0957ZM29.3613 39.1758V37.9336H24.498V39.1758H29.3613ZM41.0591 40.8926H39.9634V35.4902H41.0591V40.8926ZM41.0708 44.0273H35.2876V45.3633H34.1978V43.1777H39.9693V42.2754H34.1744V41.3965H41.0708V44.0273ZM41.4224 45.8906H34.1978V45H41.4224V45.8906ZM35.9732 36.5742C35.9732 37.2227 35.8501 37.832 35.604 38.4023C35.358 38.9727 35.0083 39.4688 34.5552 39.8906C34.1021 40.3125 33.5708 40.627 32.9615 40.834L32.3931 39.9551C32.9361 39.7715 33.4068 39.5098 33.8052 39.1699C34.2037 38.8262 34.5103 38.4297 34.7251 37.9805C34.94 37.5273 35.0474 37.0586 35.0474 36.5742V35.7715H35.9732V36.5742ZM36.19 36.5742C36.19 37.0469 36.2935 37.4961 36.5005 37.9219C36.7115 38.3477 37.0142 38.7207 37.4087 39.041C37.8033 39.3613 38.2662 39.6074 38.7974 39.7793L38.2525 40.6406C37.647 40.4375 37.1177 40.1367 36.6646 39.7383C36.2154 39.3398 35.8677 38.8691 35.6216 38.3262C35.3755 37.7832 35.2525 37.1992 35.2525 36.5742V35.7715H36.19V36.5742ZM47.9171 42.0469H46.8097V40.4707H47.9171V42.0469ZM52.1651 40.7344H42.5909V39.8438H52.1651V40.7344ZM50.9288 39.0703H43.8097V35.8301H50.9288V39.0703ZM44.9112 38.1914H49.8214V36.709H44.9112V38.1914ZM50.9522 44.1152H44.8468V45.2988H43.7511V43.3008H49.8624V42.498H43.7335V41.6484H50.9522V44.1152ZM51.2569 45.8906H43.7511V45.0293H51.2569V45.8906ZM65.1896 41.3438H55.6037V40.4238H65.1896V41.3438ZM64.0763 39.5098H56.8049V38.6133H64.0763V39.5098ZM64.0119 36.7852H57.9006V39.0527H56.8049V35.8711H64.0119V36.7852ZM60.3849 42.1641C61.1388 42.1641 61.7873 42.2383 62.3302 42.3867C62.8771 42.5352 63.2931 42.752 63.5783 43.0371C63.8674 43.3223 64.0119 43.666 64.0119 44.0684C64.0119 44.4746 63.8674 44.8203 63.5783 45.1055C63.2931 45.3906 62.8791 45.6074 62.3361 45.7559C61.7931 45.9043 61.1427 45.9785 60.3849 45.9785C59.6271 45.9785 58.9748 45.9043 58.4279 45.7559C57.881 45.6074 57.4631 45.3906 57.174 45.1055C56.8849 44.8203 56.7404 44.4746 56.7404 44.0684C56.7404 43.666 56.8849 43.3223 57.174 43.0371C57.4631 42.752 57.881 42.5352 58.4279 42.3867C58.9748 42.2383 59.6271 42.1641 60.3849 42.1641ZM60.3849 43.0195C59.8498 43.0195 59.3947 43.0625 59.0197 43.1484C58.6447 43.2305 58.3595 43.3496 58.1642 43.5059C57.9689 43.6582 57.8713 43.8457 57.8713 44.0684C57.8713 44.291 57.9689 44.4805 58.1642 44.6367C58.3595 44.793 58.6447 44.9121 59.0197 44.9941C59.3947 45.0723 59.8498 45.1113 60.3849 45.1113C60.9201 45.1113 61.3732 45.0723 61.7443 44.9941C62.1193 44.9121 62.4045 44.793 62.5998 44.6367C62.7951 44.4805 62.8927 44.291 62.8927 44.0684C62.8927 43.8457 62.7951 43.6582 62.5998 43.5059C62.4045 43.3496 62.1193 43.2305 61.7443 43.1484C61.3693 43.0625 60.9162 43.0195 60.3849 43.0195ZM75.4284 42.1348H65.8191V41.2266H75.4284V42.1348ZM74.2155 38.3848H68.157V39.7148H67.0554V37.5645H73.1023V36.627H67.0261V35.7363H74.2155V38.3848ZM74.4323 40.2363H67.0554V39.3633H74.4323V40.2363ZM71.1687 41.6953H70.073V39.791H71.1687V41.6953ZM74.2741 45.9141H73.155V43.7578H66.8913V42.8672H74.2741V45.9141Z" fill="#111111"/>
</svg>
