<svg width="19" height="20" viewBox="0 0 19 20" fill="none" xmlns="http://www.w3.org/2000/svg">
<path d="M9.24997 13C6.0799 13 3.26077 14.5306 1.46597 16.906C1.07968 17.4172 0.886533 17.6728 0.89285 18.0183C0.897731 18.2852 1.06533 18.6219 1.27534 18.7867C1.54716 19 1.92384 19 2.6772 19H15.8227C16.5761 19 16.9528 19 17.2246 18.7867C17.4346 18.6219 17.6022 18.2852 17.6071 18.0183C17.6134 17.6728 17.4203 17.4172 17.034 16.906C15.2392 14.5306 12.42 13 9.24997 13Z" stroke="#111111" stroke-width="1.5" stroke-linecap="round" stroke-linejoin="round"/>
<path d="M9.24997 10C11.7353 10 13.75 7.98528 13.75 5.5C13.75 3.01472 11.7353 1 9.24997 1C6.76469 1 4.74997 3.01472 4.74997 5.5C4.74997 7.98528 6.76469 10 9.24997 10Z" stroke="#111111" stroke-width="1.5" stroke-linecap="round" stroke-linejoin="round"/>
</svg>
