<svg width="21" height="21" viewBox="0 0 21 21" fill="none" xmlns="http://www.w3.org/2000/svg">
<path d="M1.00009 15.2374H0.250093H1.00009ZM8.00002 17.75C8.41423 17.75 8.75002 17.4142 8.75002 17C8.75002 16.5858 8.41423 16.25 8.00002 16.25V17.75ZM3.18191 16.9998L3.149 17.7491C3.15996 17.7496 3.17093 17.7498 3.18191 17.7498V16.9998ZM9.95791 12.7774C10.3715 12.8006 10.7256 12.4842 10.7488 12.0707C10.7721 11.6571 10.4556 11.303 10.0421 11.2798L9.95791 12.7774ZM18.933 14.201L19.4633 14.7313L18.933 14.201ZM13.8742 19.2598L13.3439 18.7294H13.3439L13.8742 19.2598ZM11.7402 17.1258L11.2099 16.5955H11.2099L11.7402 17.1258ZM16.799 12.067L16.2687 11.5367V11.5367L16.799 12.067ZM12.7361 19.8288L12.63 19.0864H12.63L12.7361 19.8288ZM11.5743 19.9948L11.6803 20.7373H11.6803L11.5743 19.9948ZM11.0052 19.4257L11.7477 19.5318L11.0052 19.4257ZM11.1712 18.2639L10.4287 18.1578L11.1712 18.2639ZM18.933 12.067L18.4027 12.5973L18.933 12.067ZM12.5 5H11.75C11.75 6.89213 10.4278 8.25 9 8.25V9V9.75C11.4381 9.75 13.25 7.52615 13.25 5H12.5ZM9 9V8.25C7.57216 8.25 6.25 6.89213 6.25 5H5.5H4.75C4.75 7.52615 6.56185 9.75 9 9.75V9ZM5.5 5H6.25C6.25 3.10787 7.57216 1.75 9 1.75V1V0.25C6.56185 0.25 4.75 2.47385 4.75 5H5.5ZM9 1V1.75C10.4278 1.75 11.75 3.10787 11.75 5H12.5H13.25C13.25 2.47385 11.4381 0.25 9 0.25V1ZM1.00009 15.2374H1.75009C1.75009 15.0005 1.86767 14.7244 2.23882 14.4089C2.61505 14.089 3.18838 13.7883 3.92197 13.532C5.38381 13.0212 7.2971 12.75 9.00001 12.75V12V11.25C7.16834 11.25 5.08167 11.5378 3.42719 12.1159C2.60263 12.404 1.83871 12.7802 1.26724 13.2661C0.690682 13.7562 0.250093 14.4147 0.250093 15.2374H1.00009ZM8.00002 17V16.25C7.09172 16.25 6.61449 16.25 6.00068 16.2499C5.38685 16.2499 4.63647 16.2498 3.18191 16.2498V16.9998V17.7498C4.63643 17.7498 5.38677 17.7499 6.00056 17.7499C6.61437 17.75 7.09165 17.75 8.00002 17.75V17ZM3.18191 16.9998L3.21482 16.2505C2.268 16.2089 1.97659 15.9041 1.8772 15.7557C1.74865 15.5636 1.75009 15.3576 1.75009 15.2374H1.00009H0.250093C0.250093 15.36 0.226408 15.9861 0.630739 16.5901C1.06424 17.2377 1.86374 17.6926 3.149 17.7491L3.18191 16.9998ZM10 12.0286L10.0421 11.2798C9.69013 11.26 9.34133 11.25 9.00001 11.25V12V12.75C9.31228 12.75 9.63299 12.7591 9.95791 12.7774L10 12.0286ZM18.933 14.201L18.4027 13.6707L13.3439 18.7294L13.8742 19.2598L14.4045 19.7901L19.4633 14.7313L18.933 14.201ZM11.7402 17.1258L12.2706 17.6561L17.3293 12.5973L16.799 12.067L16.2687 11.5367L11.2099 16.5955L11.7402 17.1258ZM12.7361 19.8288L12.63 19.0864L11.4682 19.2523L11.5743 19.9948L11.6803 20.7373L12.8422 20.5713L12.7361 19.8288ZM11.0052 19.4257L11.7477 19.5318L11.9136 18.37L11.1712 18.2639L10.4287 18.1578L10.2627 19.3197L11.0052 19.4257ZM11.5743 19.9948L11.4682 19.2523C11.6312 19.2291 11.7709 19.3688 11.7477 19.5318L11.0052 19.4257L10.2627 19.3197C10.1446 20.1466 10.8534 20.8554 11.6803 20.7373L11.5743 19.9948ZM11.7402 17.1258L11.2099 16.5955C10.7873 17.018 10.5132 17.5662 10.4287 18.1578L11.1712 18.2639L11.9136 18.37C11.9522 18.0997 12.0775 17.8492 12.2706 17.6561L11.7402 17.1258ZM13.8742 19.2598L13.3439 18.7294C13.1508 18.9225 12.9003 19.0478 12.63 19.0864L12.7361 19.8288L12.8422 20.5713C13.4338 20.4868 13.982 20.2127 14.4045 19.7901L13.8742 19.2598ZM16.799 12.067L17.3293 12.5973C17.6257 12.3009 18.1063 12.3009 18.4027 12.5973L18.933 12.067L19.4633 11.5367C18.5812 10.6545 17.1509 10.6545 16.2687 11.5367L16.799 12.067ZM18.933 14.201L19.4633 14.7313C20.3455 13.8491 20.3455 12.4188 19.4633 11.5367L18.933 12.067L18.4027 12.5973C18.6991 12.8937 18.6991 13.3743 18.4027 13.6707L18.933 14.201Z" fill="#111111"/>
</svg>
