<svg width="75" height="44" viewBox="0 0 75 44" fill="none" xmlns="http://www.w3.org/2000/svg">
<path d="M15 28L9 22L15 16" stroke="#111111" stroke-width="1.5" stroke-linecap="round" stroke-linejoin="round"/>
<path d="M42.9941 28.1045H28.5801V26.7246H42.9941V28.1045ZM36.5693 27.3135H34.9346V23.4727H36.5693V27.3135ZM41.2275 20.2734H31.999V23.2969H30.3379V18.9375H39.584V16.7227H30.3115V15.3604H41.2275V20.2734ZM41.5967 23.9473H30.3379V22.5762H41.5967V23.9473ZM55.6365 17.2061H45.4588V15.8438H55.6365V17.2061ZM58.282 27.7529H43.9207V26.3818H58.282V27.7529ZM56.4012 17.6279C56.4012 18.5127 56.3924 19.292 56.3748 19.9658C56.3572 20.6396 56.3045 21.416 56.2166 22.2949C56.1287 23.168 55.9969 24.1201 55.8211 25.1514L54.1248 24.9932C54.3182 24.0322 54.4588 23.1211 54.5467 22.2598C54.6346 21.3984 54.6903 20.6279 54.7137 19.9482C54.7371 19.2686 54.7488 18.4893 54.7488 17.6104V17.5225V15.8438H56.4012V17.5225V17.6279ZM72.3219 25.7051H70.6608V14.2529H72.3219V25.7051ZM72.7965 29.6777H62.0299V28.2979H72.7965V29.6777ZM63.6998 28.7988H62.0299V24.5449H63.6998V28.7988ZM63.7789 15.3164C64.5641 15.3164 65.276 15.4834 65.9147 15.8174C66.5534 16.1514 67.0543 16.6143 67.4176 17.2061C67.7868 17.7979 67.9713 18.4688 67.9713 19.2188C67.9713 19.9746 67.7868 20.6514 67.4176 21.249C67.0543 21.8408 66.5534 22.3037 65.9147 22.6377C65.276 22.9717 64.5641 23.1387 63.7789 23.1387C62.9938 23.1387 62.2819 22.9717 61.6432 22.6377C61.0104 22.3037 60.5094 21.8408 60.1403 21.249C59.7711 20.6514 59.5866 19.9746 59.5866 19.2188C59.5866 18.4688 59.7711 17.7979 60.1403 17.2061C60.5094 16.6143 61.0104 16.1514 61.6432 15.8174C62.2819 15.4834 62.9938 15.3164 63.7789 15.3164ZM63.7789 16.7754C63.2926 16.7754 62.8532 16.8779 62.4606 17.083C62.0739 17.2881 61.7692 17.5752 61.5465 17.9443C61.3239 18.3135 61.2155 18.7383 61.2213 19.2188C61.2155 19.7051 61.3239 20.1357 61.5465 20.5107C61.7692 20.8799 62.0739 21.167 62.4606 21.3721C62.8532 21.5771 63.2926 21.6797 63.7789 21.6797C64.2594 21.6797 64.693 21.5771 65.0797 21.3721C65.4664 21.167 65.7711 20.8799 65.9938 20.5107C66.2164 20.1357 66.3278 19.7051 66.3278 19.2188C66.3278 18.7383 66.2164 18.3135 65.9938 17.9443C65.7711 17.5752 65.4664 17.2881 65.0797 17.083C64.693 16.8779 64.2594 16.7754 63.7789 16.7754Z" fill="#4D4D4D"/>
</svg>
