<svg width="402" height="54" viewBox="0 0 402 54" fill="none" xmlns="http://www.w3.org/2000/svg">
<path d="M58.0869 23.0627C57.2292 23.0627 56.4627 23.2454 55.7876 23.6106C55.118 23.9703 54.5923 24.4683 54.2104 25.1047C53.8341 25.7356 53.646 26.4578 53.646 27.2712V27.2878C53.646 28.0404 53.812 28.7156 54.144 29.3132C54.4816 29.9109 54.9437 30.3813 55.5303 30.7244C56.1169 31.0675 56.792 31.239 57.5557 31.239C58.109 31.239 58.5905 31.156 59 30.99C59.415 30.824 59.7637 30.6054 60.0459 30.3342C60.3281 30.0631 60.5412 29.7698 60.6851 29.4543H60.9756V27.2463H60.4775V27.2629C60.4775 27.7112 60.3724 28.1124 60.1621 28.4666C59.9518 28.8207 59.6668 29.0974 59.3071 29.2966C58.9474 29.4958 58.5407 29.5955 58.0869 29.5955C57.6331 29.5955 57.2292 29.4931 56.875 29.2883C56.5208 29.0836 56.2414 28.8041 56.0366 28.45C55.8319 28.0903 55.7295 27.678 55.7295 27.2131V27.1965C55.7295 26.7483 55.8374 26.3443 56.0532 25.9846C56.269 25.6194 56.5568 25.3316 56.9165 25.1213C57.2762 24.9111 57.6719 24.8059 58.1035 24.8059C58.5518 24.8059 58.953 24.9138 59.3071 25.1296C59.6668 25.3455 59.9518 25.6388 60.1621 26.0095C60.3724 26.3803 60.4775 26.7926 60.4775 27.2463L60.8511 29.2468C60.8511 29.3243 60.8511 29.4045 60.8511 29.4875C60.8511 29.565 60.8483 29.6453 60.8428 29.7283C60.8151 30.4919 60.6989 31.1892 60.4941 31.8201C60.2949 32.4454 59.9933 32.9462 59.5894 33.3225C59.1909 33.6933 58.6763 33.8787 58.0454 33.8787C57.6968 33.8787 57.3813 33.8233 57.0991 33.7126C56.8224 33.5964 56.5845 33.4332 56.3853 33.2229C56.1916 33.0126 56.0422 32.7691 55.937 32.4924L55.9038 32.4094H53.8037L53.8203 32.5007C53.9531 33.1095 54.2104 33.6518 54.5923 34.1277C54.9797 34.5981 55.4666 34.9688 56.0532 35.24C56.6453 35.5056 57.3094 35.6384 58.0454 35.6384C59.047 35.6384 59.9076 35.3839 60.627 34.8748C61.3519 34.3601 61.908 33.6241 62.2954 32.6667C62.6828 31.7094 62.8765 30.5583 62.8765 29.2136V29.197C62.8765 28.1124 62.7492 27.1855 62.4946 26.4163C62.2401 25.6415 61.8887 25.0079 61.4404 24.5154C60.9977 24.0173 60.4886 23.6521 59.9131 23.4197C59.3376 23.1817 58.7288 23.0627 58.0869 23.0627ZM66.645 33.7292C67.0269 33.7292 67.3423 33.6047 67.5913 33.3557C67.8403 33.1012 67.9648 32.7913 67.9648 32.426C67.9648 32.0553 67.8403 31.7454 67.5913 31.4963C67.3423 31.2418 67.0269 31.1145 66.645 31.1145C66.2687 31.1145 65.9533 31.2418 65.6987 31.4963C65.4497 31.7454 65.3252 32.0553 65.3252 32.426C65.3252 32.7913 65.4497 33.1012 65.6987 33.3557C65.9533 33.6047 66.2687 33.7292 66.645 33.7292ZM66.645 27.5701C67.0269 27.5701 67.3423 27.4456 67.5913 27.1965C67.8403 26.942 67.9648 26.6321 67.9648 26.2668C67.9648 25.8961 67.8403 25.5862 67.5913 25.3372C67.3423 25.0826 67.0269 24.9553 66.645 24.9553C66.2687 24.9553 65.9533 25.0826 65.6987 25.3372C65.4497 25.5862 65.3252 25.8961 65.3252 26.2668C65.3252 26.6321 65.4497 26.942 65.6987 27.1965C65.9533 27.4456 66.2687 27.5701 66.645 27.5701ZM76.2241 35.3396H78.2661V33.0403H79.8848V31.2722H78.2661V23.3616H75.2529C74.9209 23.8541 74.5889 24.3604 74.2568 24.8806C73.9303 25.3953 73.6011 25.9182 73.269 26.4495C72.9425 26.9752 72.6133 27.5092 72.2812 28.0515C71.9548 28.5883 71.631 29.1278 71.3101 29.6702C70.9946 30.2125 70.6792 30.752 70.3638 31.2888V33.0403H76.2241V35.3396ZM72.356 31.322V31.1975C72.5884 30.788 72.8291 30.3757 73.0781 29.9607C73.3271 29.5401 73.5789 29.1223 73.8335 28.7073C74.0881 28.2867 74.3454 27.8689 74.6055 27.4539C74.8656 27.0388 75.1229 26.6321 75.3774 26.2336C75.6375 25.8352 75.8893 25.4478 76.1328 25.0715H76.2573V31.322H72.356ZM84.8403 35.3396H86.9736V23.3616H84.8403L81.7109 25.5613V27.5701L84.6909 25.47H84.8403V35.3396Z" fill="black"/>
<rect opacity="0.35" x="341.782" y="23.5" width="24" height="12" rx="3.8" stroke="black"/>
<path opacity="0.4" d="M367.282 27.7812V31.8567C368.087 31.5116 368.61 30.7086 368.61 29.819C368.61 28.9294 368.087 28.1264 367.282 27.7812Z" fill="black"/>
<rect x="343.282" y="25" width="21" height="9" rx="2.5" fill="black"/>
<path fill-rule="evenodd" clip-rule="evenodd" d="M325.553 26.104C328.04 26.1041 330.432 27.0262 332.234 28.6796C332.37 28.8073 332.587 28.8057 332.721 28.676L334.018 27.4126C334.086 27.3468 334.124 27.2577 334.123 27.165C334.123 27.0724 334.084 26.9837 334.015 26.9187C329.284 22.544 321.821 22.544 317.09 26.9187C317.021 26.9837 316.982 27.0723 316.981 27.165C316.981 27.2577 317.018 27.3468 317.086 27.4126L318.384 28.676C318.518 28.8059 318.735 28.8075 318.87 28.6796C320.673 27.0261 323.065 26.104 325.553 26.104ZM325.549 30.3243C326.907 30.3242 328.216 30.8359 329.222 31.76C329.358 31.8912 329.572 31.8883 329.705 31.7536L330.992 30.4343C331.06 30.3651 331.098 30.2712 331.097 30.1737C331.096 30.0761 331.056 29.9831 330.987 29.9153C327.923 27.0244 323.178 27.0244 320.114 29.9153C320.045 29.9831 320.006 30.0762 320.005 30.1738C320.004 30.2714 320.042 30.3652 320.11 30.4343L321.397 31.7536C321.529 31.8883 321.744 31.8912 321.88 31.76C322.885 30.8365 324.193 30.3248 325.549 30.3243ZM328.074 33.1178C328.076 33.2232 328.039 33.3247 327.971 33.3985L325.795 35.8533C325.731 35.9254 325.644 35.966 325.553 35.966C325.462 35.966 325.375 35.9254 325.312 35.8533L323.135 33.3985C323.067 33.3247 323.03 33.2231 323.032 33.1177C323.034 33.0124 323.075 32.9126 323.145 32.842C324.535 31.5281 326.571 31.5281 327.961 32.842C328.031 32.9127 328.072 33.0125 328.074 33.1178Z" fill="black"/>
<path fill-rule="evenodd" clip-rule="evenodd" d="M309.482 24.6821C309.482 24.0491 309.005 23.5359 308.416 23.5359H307.349C306.76 23.5359 306.282 24.0491 306.282 24.6821V34.6161C306.282 35.2491 306.76 35.7623 307.349 35.7623H308.416C309.005 35.7623 309.482 35.2491 309.482 34.6161V24.6821ZM302.048 25.9812H303.115C303.704 25.9812 304.181 26.5067 304.181 27.1549V34.5886C304.181 35.2368 303.704 35.7623 303.115 35.7623H302.048C301.459 35.7623 300.981 35.2368 300.981 34.5886V27.1549C300.981 26.5067 301.459 25.9812 302.048 25.9812ZM297.716 28.6302H296.65C296.061 28.6302 295.583 29.1624 295.583 29.8189V34.5736C295.583 35.2301 296.061 35.7623 296.65 35.7623H297.716C298.305 35.7623 298.783 35.2301 298.783 34.5736V29.8189C298.783 29.1624 298.305 28.6302 297.716 28.6302ZM292.416 31.0755H291.349C290.76 31.0755 290.282 31.6001 290.282 32.2472V34.5906C290.282 35.2377 290.76 35.7623 291.349 35.7623H292.416C293.005 35.7623 293.482 35.2377 293.482 34.5906V32.2472C293.482 31.6001 293.005 31.0755 292.416 31.0755Z" fill="black"/>
</svg>
