<svg width="24" height="24" viewBox="0 0 24 24" fill="none" xmlns="http://www.w3.org/2000/svg">
<path d="M19.1998 10.2C19.1998 15.6 11.9998 21 11.9998 21C11.9998 21 4.7998 15.6 4.7998 10.2C4.7998 8.29044 5.55837 6.45909 6.90864 5.10883C8.2589 3.75857 10.0902 3 11.9998 3C13.9094 3 15.7407 3.75857 17.091 5.10883C18.4412 6.45909 19.1998 8.29044 19.1998 10.2Z" stroke="#111111" stroke-width="1.5" stroke-linecap="round" stroke-linejoin="round"/>
<path d="M11.9998 12.9C13.491 12.9 14.6998 11.6912 14.6998 10.2C14.6998 8.70883 13.491 7.5 11.9998 7.5C10.5086 7.5 9.2998 8.70883 9.2998 10.2C9.2998 11.6912 10.5086 12.9 11.9998 12.9Z" stroke="#111111" stroke-width="1.5" stroke-linecap="round" stroke-linejoin="round"/>
</svg>
