<svg width="24" height="24" viewBox="0 0 24 24" fill="none" xmlns="http://www.w3.org/2000/svg">
<path d="M9 9.5C9.27614 9.5 9.5 9.72386 9.5 10C9.5 10.2761 9.27614 10.5 9 10.5C8.72386 10.5 8.5 10.2761 8.5 10C8.5 9.72386 8.72386 9.5 9 9.5ZM15 9.5C15.2761 9.5 15.5 9.72386 15.5 10C15.5 10.2761 15.2761 10.5 15 10.5C14.7239 10.5 14.5 10.2761 14.5 10C14.5 9.72386 14.7239 9.5 15 9.5Z" stroke="#111111"/>
<path d="M15.0001 7V6C15.0001 4.34315 13.6569 3 12.0001 3C10.3432 3 9.00006 4.34315 9.00006 6V7M7.31957 20H16.6806C19.0106 20 20.8475 18.0164 20.6688 15.6932L20.2131 9.76991C20.0929 8.20692 18.7896 7 17.222 7H6.77816C5.21055 7 3.90722 8.20692 3.78699 9.76991L3.33136 15.6932C3.15265 18.0164 4.98953 20 7.31957 20Z" stroke="#111111" stroke-width="1.5" stroke-linecap="round" stroke-linejoin="round"/>
</svg>
