<svg width="24" height="24" viewBox="0 0 24 24" fill="none" xmlns="http://www.w3.org/2000/svg">
<path d="M10 14.25C10.0941 14.25 10.1379 14.2737 10.1826 14.3184C10.2271 14.3629 10.2502 14.4058 10.25 14.498V20.5C10.25 20.5939 10.2263 20.638 10.1816 20.6826C10.1371 20.7271 10.094 20.7502 10.002 20.75H4C3.90607 20.75 3.86294 20.7263 3.81934 20.6826C3.78554 20.6487 3.76384 20.6148 3.75488 20.5605L3.75 20.498V14.5C3.75 14.4061 3.77367 14.3629 3.81738 14.3193C3.85136 14.2855 3.88499 14.2628 3.93945 14.2539L4.00195 14.25H10ZM17.501 13.75C18.5518 13.7489 19.4227 14.1084 20.1572 14.8428C20.8919 15.5774 21.2517 16.4489 21.25 17.499C21.2482 18.5509 20.888 19.4235 20.1562 20.1592C19.4268 20.8925 18.557 21.2522 17.502 21.25H17.5C16.4466 21.25 15.5761 20.8895 14.8438 20.1572C14.1114 19.4249 13.7506 18.5534 13.75 17.499C13.7495 16.4455 14.1097 15.5752 14.8428 14.8438C15.5769 14.1113 16.4486 13.7511 17.501 13.75ZM11.9971 3.6748C12.048 3.67502 12.0931 3.68536 12.1406 3.70898C12.1431 3.71021 12.1686 3.72212 12.207 3.78613L12.2109 3.79199L15.9307 9.86035H15.9316C15.9661 9.91776 15.9746 9.96087 15.9746 10C15.9746 10.0648 15.9615 10.1048 15.9443 10.1357C15.9254 10.1699 15.9003 10.1974 15.8574 10.2236C15.8415 10.2333 15.8071 10.2503 15.7275 10.25H8.27539C8.19346 10.25 8.15651 10.2329 8.13965 10.2227C8.09878 10.1978 8.07553 10.1709 8.05664 10.1367C8.03854 10.104 8.02542 10.0636 8.02539 10C8.02539 9.96362 8.03282 9.92247 8.06445 9.86719L11.7891 3.79199L11.793 3.78613C11.831 3.72282 11.8568 3.70931 11.8613 3.70703C11.9068 3.68422 11.9492 3.67461 11.9971 3.6748Z" stroke="#111111" stroke-width="1.5"/>
</svg>
