<svg width="16" height="17" viewBox="0 0 16 17" fill="none" xmlns="http://www.w3.org/2000/svg">
<path d="M8 5.83333V9.16667M14 8.5C14 11.8137 11.3137 14.5 8 14.5C4.68629 14.5 2 11.8137 2 8.5C2 5.18629 4.68629 2.5 8 2.5C11.3137 2.5 14 5.18629 14 8.5Z" stroke="#D32F2F" stroke-linecap="round" stroke-linejoin="round"/>
<mask id="path-2-inside-1_62_2540" fill="white">
<ellipse cx="0.666667" cy="0.666667" rx="0.666667" ry="0.666667" transform="matrix(-1 0 0 1 8.6665 10.5)"/>
</mask>
<ellipse cx="0.666667" cy="0.666667" rx="0.666667" ry="0.666667" transform="matrix(-1 0 0 1 8.6665 10.5)" fill="#D32F2F"/>
<path d="M7.33317 11.1667H8.33317C8.33317 10.9826 8.18393 10.8333 7.99984 10.8333V11.8333V12.8333C7.07936 12.8333 6.33317 12.0871 6.33317 11.1667H7.33317ZM7.99984 11.8333V10.8333C7.81574 10.8333 7.6665 10.9826 7.6665 11.1667H8.6665H9.6665C9.6665 12.0871 8.92031 12.8333 7.99984 12.8333V11.8333ZM8.6665 11.1667H7.6665C7.6665 11.3508 7.81574 11.5 7.99984 11.5V10.5V9.5C8.92031 9.5 9.6665 10.2462 9.6665 11.1667H8.6665ZM7.99984 10.5V11.5C8.18393 11.5 8.33317 11.3508 8.33317 11.1667H7.33317H6.33317C6.33317 10.2462 7.07936 9.5 7.99984 9.5V10.5Z" fill="#D32F2F" mask="url(#path-2-inside-1_62_2540)"/>
</svg>
