<svg width="36" height="44" viewBox="0 0 36 44" fill="none" xmlns="http://www.w3.org/2000/svg">
<path d="M24 26.75C24.4142 26.75 24.75 27.0858 24.75 27.5C24.75 27.9142 24.4142 28.25 24 28.25C23.5858 28.25 23.25 27.9142 23.25 27.5C23.25 27.0858 23.5858 26.75 24 26.75ZM24 21.25C24.4142 21.25 24.75 21.5858 24.75 22C24.75 22.4142 24.4142 22.75 24 22.75C23.5858 22.75 23.25 22.4142 23.25 22C23.25 21.5858 23.5858 21.25 24 21.25ZM24 15.75C24.4142 15.75 24.75 16.0858 24.75 16.5C24.75 16.9142 24.4142 17.25 24 17.25C23.5858 17.25 23.25 16.9142 23.25 16.5C23.25 16.0858 23.5858 15.75 24 15.75Z" stroke="#111111" stroke-width="1.5"/>
</svg>
