<svg width="117" height="44" viewBox="0 0 117 44" fill="none" xmlns="http://www.w3.org/2000/svg">
<rect x="11.5" y="11.5" width="21" height="21" rx="3.5" stroke="#808080"/>
<path fill-rule="evenodd" clip-rule="evenodd" d="M20.1723 24.8999L26.9661 18L28 19.05L20.1723 27L16 22.7625L17.0339 21.7125L20.1723 24.8999Z" fill="white"/>
<path d="M49.0312 19.6406C49.0312 20.5833 48.8542 21.5208 48.5 22.4531C48.1458 23.3802 47.6641 24.2109 47.0547 24.9453C46.4453 25.6797 45.7865 26.2292 45.0781 26.5938L44.3281 25.625C44.9896 25.3021 45.6042 24.8177 46.1719 24.1719C46.7448 23.526 47.2005 22.8021 47.5391 22C47.8828 21.1979 48.0573 20.4115 48.0625 19.6406V17.3438H49.0312V19.6406ZM49.2656 19.6406C49.2604 20.3698 49.4167 21.1094 49.7344 21.8594C50.0573 22.6094 50.4948 23.2891 51.0469 23.8984C51.599 24.5026 52.2083 24.9635 52.875 25.2812L52.1719 26.25C51.4479 25.8958 50.7891 25.3724 50.1953 24.6797C49.6068 23.987 49.1406 23.2005 48.7969 22.3203C48.4531 21.4349 48.2812 20.5417 48.2812 19.6406V17.3438H49.2656V19.6406ZM52.3906 17.8281H44.8281V16.8125H52.3906V17.8281ZM55.3125 29.2656H54.0938V15.375H55.3125V29.2656ZM57.6406 22.0469H55.0312V21H57.6406V22.0469ZM70.8705 23.2344H58.1986V22.25H70.8705V23.2344ZM65.1205 22.6719H63.933V20.0156H65.1205V22.6719ZM69.3861 20.625H59.808V19.625H69.3861V20.625ZM69.2924 17.0156H61.0111V20.2344H59.808V16.0312H69.2924V17.0156ZM64.5267 24.25C65.5163 24.25 66.3679 24.349 67.0814 24.5469C67.795 24.7448 68.3419 25.0312 68.7221 25.4062C69.1075 25.776 69.3028 26.224 69.308 26.75C69.3028 27.2812 69.1101 27.7318 68.7299 28.1016C68.3549 28.4714 67.808 28.7552 67.0892 28.9531C66.3705 29.1562 65.5163 29.2604 64.5267 29.2656C63.5267 29.2604 62.6674 29.1562 61.9486 28.9531C61.2299 28.7552 60.6804 28.4688 60.3002 28.0938C59.92 27.724 59.7299 27.276 59.7299 26.75C59.7299 26.224 59.92 25.776 60.3002 25.4062C60.6804 25.0312 61.2299 24.7448 61.9486 24.5469C62.6674 24.349 63.5267 24.25 64.5267 24.25ZM64.5267 25.2188C63.7872 25.2188 63.1517 25.2786 62.6205 25.3984C62.0892 25.5182 61.6804 25.6953 61.3939 25.9297C61.1127 26.1589 60.9747 26.4323 60.9799 26.75C60.9747 27.0729 61.1127 27.349 61.3939 27.5781C61.6804 27.8073 62.0892 27.9818 62.6205 28.1016C63.1517 28.2214 63.7872 28.2812 64.5267 28.2812C65.2559 28.2812 65.8861 28.2214 66.4174 28.1016C66.9486 27.9818 67.3575 27.8073 67.6439 27.5781C67.9304 27.349 68.0736 27.0729 68.0736 26.75C68.0736 26.4323 67.9304 26.1589 67.6439 25.9297C67.3575 25.6953 66.9486 25.5182 66.4174 25.3984C65.8861 25.2786 65.2559 25.2188 64.5267 25.2188ZM88.3771 27.5469H75.6584V26.5156H88.3771V27.5469ZM82.5802 26.9688H81.3771V23.5312H82.5802V26.9688ZM86.7677 20.6094H78.4709V23.4219H77.2521V19.6094H85.5646V17.4219H77.2209V16.4062H86.7677V20.6094ZM87.0959 23.8906H77.2521V22.875H87.0959V23.8906ZM99.7007 17.875H90.6695V16.8594H99.7007V17.875ZM101.951 27.2188H89.2945V26.2031H101.951V27.2188ZM100.248 18.3438C100.248 19.1042 100.24 19.7812 100.224 20.375C100.209 20.9688 100.162 21.6589 100.084 22.4453C100.005 23.2266 99.8882 24.0781 99.732 25L98.482 24.875C98.6539 24.0104 98.7789 23.1927 98.857 22.4219C98.9403 21.651 98.9924 20.9635 99.0132 20.3594C99.0341 19.75 99.0445 19.0729 99.0445 18.3281V18.25V16.8594H100.248V18.25V18.3438ZM114.399 25.5469H113.181V15.3906H114.399V25.5469ZM114.837 28.9688H105.431V27.9375H114.837V28.9688ZM106.649 28.2812H105.431V24.5156H106.649V28.2812ZM106.899 16.3594C107.587 16.3594 108.207 16.5052 108.759 16.7969C109.311 17.0885 109.746 17.4922 110.063 18.0078C110.381 18.5234 110.54 19.1094 110.54 19.7656C110.54 20.4271 110.381 21.0182 110.063 21.5391C109.746 22.0547 109.311 22.4583 108.759 22.75C108.207 23.0417 107.587 23.1875 106.899 23.1875C106.212 23.1875 105.592 23.0417 105.04 22.75C104.488 22.4583 104.053 22.0547 103.735 21.5391C103.418 21.0182 103.259 20.4271 103.259 19.7656C103.259 19.1094 103.418 18.5234 103.735 18.0078C104.053 17.4922 104.488 17.0885 105.04 16.7969C105.592 16.5052 106.212 16.3594 106.899 16.3594ZM106.899 17.4375C106.436 17.4375 106.017 17.5365 105.642 17.7344C105.272 17.9323 104.98 18.2083 104.767 18.5625C104.558 18.9167 104.457 19.3177 104.462 19.7656C104.457 20.2188 104.558 20.625 104.767 20.9844C104.98 21.3385 105.272 21.6146 105.642 21.8125C106.017 22.0104 106.436 22.1094 106.899 22.1094C107.358 22.1094 107.772 22.0104 108.142 21.8125C108.511 21.6146 108.803 21.3385 109.017 20.9844C109.23 20.625 109.337 20.2188 109.337 19.7656C109.337 19.3177 109.23 18.9167 109.017 18.5625C108.803 18.2083 108.511 17.9323 108.142 17.7344C107.772 17.5365 107.358 17.4375 106.899 17.4375Z" fill="#4D4D4D"/>
</svg>
