<svg width="22" height="20" viewBox="0 0 22 20" fill="none" xmlns="http://www.w3.org/2000/svg">
<path d="M10.999 0.350525C16.799 0.350525 21.5 4.01453 21.5 8.53553C21.5 13.0555 16.799 16.7195 11 16.7195C10.4226 16.7185 9.84585 16.6818 9.273 16.6095L4.865 19.4925C4.364 19.7575 4.187 19.7285 4.393 19.0795L5.285 15.4015C2.405 13.9415 0.5 11.4115 0.5 8.53553C0.5 4.01553 5.2 0.350525 11 0.350525M16.908 8.41053L18.378 6.98652C18.4628 6.89843 18.5101 6.78086 18.51 6.65857C18.5098 6.53628 18.4622 6.41882 18.3772 6.33093C18.2922 6.24305 18.1763 6.1916 18.0541 6.18742C17.9319 6.18324 17.8128 6.22665 17.722 6.30853L15.794 8.17453V6.63252C15.794 6.50734 15.7443 6.38729 15.6558 6.29877C15.5672 6.21025 15.4472 6.16053 15.322 6.16053C15.1968 6.16053 15.0768 6.21025 14.9882 6.29877C14.8997 6.38729 14.85 6.50734 14.85 6.63252V9.18952C14.8334 9.26259 14.8334 9.33846 14.85 9.41152V10.8505C14.85 10.9757 14.8997 11.0958 14.9882 11.1843C15.0768 11.2728 15.1968 11.3225 15.322 11.3225C15.4472 11.3225 15.5672 11.2728 15.6558 11.1843C15.7443 11.0958 15.794 10.9757 15.794 10.8505V9.48752L16.221 9.07452L17.649 11.1075C17.6847 11.1583 17.73 11.2015 17.7823 11.2348C17.8347 11.268 17.8931 11.2906 17.9542 11.3013C18.0153 11.312 18.0779 11.3105 18.1384 11.297C18.199 11.2835 18.2562 11.2582 18.307 11.2225C18.3578 11.1869 18.401 11.1416 18.4342 11.0892C18.4675 11.0368 18.4901 10.9784 18.5008 10.9173C18.5115 10.8562 18.51 10.7936 18.4965 10.7331C18.483 10.6726 18.4577 10.6153 18.422 10.5645L16.908 8.41053ZM13.95 10.3345H12.49V6.64752C12.4844 6.52623 12.4323 6.41176 12.3445 6.3279C12.2567 6.24404 12.1399 6.19724 12.0185 6.19724C11.8971 6.19724 11.7803 6.24404 11.6925 6.3279C11.6047 6.41176 11.5526 6.52623 11.547 6.64752V10.8065C11.547 11.0665 11.757 11.2785 12.018 11.2785H13.95C14.0752 11.2785 14.1952 11.2288 14.2838 11.1403C14.3723 11.0518 14.422 10.9317 14.422 10.8065C14.422 10.6813 14.3723 10.5613 14.2838 10.4728C14.1952 10.3843 14.0752 10.3345 13.95 10.3345ZM8.093 9.24352L8.789 7.53553L9.427 9.24253L8.093 9.24352ZM10.616 9.73053L10.618 9.71453C10.6177 9.59564 10.5723 9.48129 10.491 9.39452L9.445 6.59453C9.40115 6.46109 9.31763 6.34422 9.20559 6.25952C9.09355 6.17482 8.95833 6.12633 8.818 6.12053C8.67677 6.12046 8.53882 6.16312 8.42227 6.2429C8.30573 6.32267 8.21605 6.43584 8.165 6.56752L6.503 10.6425C6.45566 10.7584 6.4563 10.8884 6.50478 11.0038C6.55325 11.1192 6.6456 11.2107 6.7615 11.258C6.8774 11.3054 7.00736 11.3047 7.12279 11.2562C7.23822 11.2078 7.32966 11.1154 7.377 10.9995L7.709 10.1865H9.779L10.077 10.9865C10.0973 11.0463 10.1295 11.1014 10.1715 11.1486C10.2135 11.1957 10.2645 11.234 10.3216 11.2611C10.3787 11.2881 10.4406 11.3035 10.5037 11.3062C10.5668 11.3089 10.6298 11.2989 10.689 11.2768C10.7481 11.2547 10.8023 11.221 10.8482 11.1776C10.894 11.1342 10.9308 11.082 10.9561 11.0242C10.9815 10.9663 10.995 10.904 10.9958 10.8408C10.9967 10.7777 10.9848 10.715 10.961 10.6565L10.616 9.73053ZM7.293 6.65252C7.29326 6.59055 7.28127 6.52914 7.2577 6.47182C7.23414 6.4145 7.19947 6.3624 7.1557 6.31854C7.11192 6.27467 7.0599 6.23989 7.00263 6.2162C6.94536 6.19252 6.88397 6.18039 6.822 6.18052H3.577C3.45182 6.18052 3.33176 6.23025 3.24325 6.31877C3.15473 6.40729 3.105 6.52734 3.105 6.65252C3.105 6.77771 3.15473 6.89776 3.24325 6.98628C3.33176 7.0748 3.45182 7.12453 3.577 7.12453H4.737V10.8605C4.737 10.9857 4.78673 11.1058 4.87525 11.1943C4.96376 11.2828 5.08382 11.3325 5.209 11.3325C5.33418 11.3325 5.45424 11.2828 5.54275 11.1943C5.63127 11.1058 5.681 10.9857 5.681 10.8605V7.12453H6.821C6.88306 7.12479 6.94455 7.11276 7.00194 7.08914C7.05932 7.06551 7.11146 7.03075 7.15534 6.98687C7.19923 6.94299 7.23398 6.89085 7.25761 6.83346C7.28124 6.77608 7.29326 6.71458 7.293 6.65252Z" fill="black"/>
</svg>
